<?xml version="1.0" encoding="utf-8"?>
<!-- Generator: Adobe Illustrator 22.1.0, SVG Export Plug-In . SVG Version: 6.00 Build 0)  -->
<svg version="1.1" xmlns="http://www.w3.org/2000/svg" xmlns:xlink="http://www.w3.org/1999/xlink" x="0px" y="0px"
	 viewBox="0 0 135 82" style="enable-background:new 0 0 135 82;" xml:space="preserve">
<style type="text/css">
	.st0{fill:#FFFFFF;}
</style>
<g id="图层_2">
	<path d="M88,71H45c-6.6,0-12-5.4-12-12V16c0-6.6,5.4-12,12-12h43c6.6,0,12,5.4,12,12v43C100,65.6,94.6,71,88,71z"/>
</g>
<g id="图层_1">
	<g>
		<path class="st0" d="M60.5,32.8l10.6,18.4l-7.7,4.4L48.5,29.8l10-5.8c4.4-2.5,8.4-3.5,12.1-3c4.3,0.7,7.7,3.1,10,7.2
			c2.3,3.9,2.8,7.8,1.7,11.8c-1.1,3.9-3.6,7.1-7.6,9.3c-0.5,0.3-1.2,0.7-2.3,1.2L68.1,43l1.2-0.7c4.5-2.6,5.6-5.8,3.5-9.5
			c-2-3.5-5.3-4-9.7-1.5L60.5,32.8z"/>
	</g>
	<path class="st0" d="M46.9,51.6c-4.4,0-8.8-1.3-12.2-5.1l7.5-6.6c3.6,4.1,12.9-0.4,13-0.5l4.6,8.9C56.7,50,51.8,51.6,46.9,51.6z"/>
	<path class="st0" d="M78.4,32.3l-4.6-8.9c6-3.1,18-6.2,25.1,1.8l-7.5,6.6C88.2,28.3,80.3,31.3,78.4,32.3z"/>
	<g>
	</g>
	<g>
	</g>
	<g>
	</g>
	<g>
	</g>
	<g>
	</g>
	<g>
	</g>
	<g>
	</g>
	<g>
	</g>
	<g>
	</g>
	<g>
	</g>
	<g>
	</g>
	<g>
	</g>
	<g>
	</g>
	<g>
	</g>
	<g>
	</g>
</g>
</svg>
